# xmcd CD database file
#
# Track frame offsets:
#	150
#	14790
#	27147
#	38936
#	51468
#	71644
#	84212
#	99813
#	119160
#	132270
#	145746
#	163134
#	174644
#	188216
#	200923
#	211448
#	226990
#	245271
#
# Disc length: 3516 seconds
#
# Revision: 0
# Processed by: cddbd v1.5.2PL0 Copyright (c) Steve Scherf et al.
# Submitted via: CDex 2.15
#
DISCID=090dba12
DTITLE=Frank Sinatra - The Voice 
DYEAR=1983
DGENRE=Jazz
TTITLE0=Theme From New York, New York
TTITLE1=I Believe I'm Gonna Love You
TTITLE2=Something Stupid
TTITLE3=For Once In My Life
TTITLE4=My Way
TTITLE5=Bad Bad Leroy Brown
TTITLE6=	I've Got You Under My Skin
TTITLE7=Ol' Man River
TTITLE8=Didn't We
TTITLE9=Dry Your Eyes
TTITLE10=Yesterday
TTITLE11=Strangers In The Night
TTITLE12=Girl From Ipanema
TTITLE13=The Lady Is A Tramp
TTITLE14=	The Shadow Of Your Smile
TTITLE15=Let Me Try Again (Laisse Moi Le Temps)
TTITLE16=I Get A Kick Out Of You
TTITLE17=Send In The Clowns (From 'A Little Night Music')
EXTD=YEAR: 1983
EXTT0=
EXTT1=
EXTT2=
EXTT3=
EXTT4=
EXTT5=
EXTT6=
EXTT7=
EXTT8=
EXTT9=
EXTT10=
EXTT11=
EXTT12=
EXTT13=
EXTT14=
EXTT15=
EXTT16=
EXTT17=
PLAYORDER=
